# AST/ASF file generated using VICON BodyLanguage
# -----------------------------------------------
:version 1.10
:name VICON
:units
  mass 1.0
  length 0.45
  angle deg
:documentation
   .ast/.asf automatically generated from VICON data using
   VICON BodyBuilder and BodyLanguage model FoxedUp or BRILLIANT.MOD
:root
   order TX TY TZ RX RY RZ
   axis XYZ
   position 0 0 0  
   orientation 0 0 0 
:bonedata
  begin
     id 1 
     name lhipjoint
     direction 0.521689 -0.742065 0.420928 
     length 2.47002 
     axis 0 0 0  XYZ
  end
  begin
     id 2 
     name lfemur
     direction 0.34202 -0.939693 0  
     length 7.24654  
     axis 0 0 20  XYZ
    dof rx ry rz
    limits (-160.0 20.0)
           (-70.0 70.0)
           (-60.0 70.0)
  end
  begin
     id 3 
     name ltibia
     direction 0.34202 -0.939693 0   
     length 8.04849   
     axis 0 0 20   XYZ
    dof rx
    limits (-10.0 170.0)
  end
  begin
     id 4 
     name lfoot
     direction 0.0745411 -0.2048 0.975961   
     length 1.72367   
     axis -90 7.62852e-016 20   XYZ
    dof rx rz
    limits (-45.0 90.0)
           (-70.0 20.0)
  end
  begin
     id 5 
     name ltoes
     direction 1.53556e-011 -4.21901e-011 1   
     length 0.87311   
     axis -90 7.62852e-016 20   XYZ
    dof rx
    limits (-90.0 20.0)
  end
  begin
     id 6 
     name rhipjoint
     direction -0.52849 -0.738415 0.418857   
     length 2.48223  
     axis 0 0 0  XYZ 
  end
  begin
     id 7 
     name rfemur
     direction -0.34202 -0.939693 0   
     length 7.15571   
     axis 0 0 -20   XYZ
    dof rx ry rz
    limits (-160.0 20.0)
           (-70.0 70.0)
           (-70.0 60.0)
  end
  begin
     id 8 
     name rtibia
     direction -0.34202 -0.939693 0   
     length 7.81659   
     axis 0 0 -20   XYZ
    dof rx
    limits (-10.0 170.0)
 end
 begin
     id 9 
     name rfoot
     direction -0.0917348 -0.252039 0.963359   
     length 1.84382  
     axis -90 -7.62852e-016 -20   XYZ
    dof rx rz
    limits (-45.0 90.0)
           (-20.0 70.0)
  end
  begin
     id 10 
     name rtoes
     direction -1.53551e-011 -4.21879e-011 1   
     length 0.927771   
     axis -90 -7.62852e-016 -20   XYZ
    dof rx
    limits (-90.0 20.0)
  end
  begin
     id 11 
     name lowerback
     direction 0.00583058 0.999822 0.0179296   
     length 2.1429   
     axis 0 0 0   XYZ
    dof rx ry rz
    limits (-20.0 45.0)
           (-30.0 30.0)
           (-30.0 30.0)
  end
  begin
     id 12 
     name upperback
     direction -0.0137999 0.999752 -0.0175071   
     length 2.14252   
     axis 0 0 0   XYZ
    dof rx ry rz
    limits (-20.0 45.0)
           (-30.0 30.0)
           (-30.0 30.0)
  end
  begin
     id 13 
     name thorax
     direction -0.0158036 0.99955 -0.0254909   
     length 2.1383   
     axis 0 0 0   XYZ
    dof rx ry rz
    limits (-20.0 45.0)
           (-30.0 30.0)
           (-30.0 30.0)
  end
  begin
     id 14 
     name lowerneck
     direction -0.0101179 0.999403 -0.0330262   
     length 1.65808   
     axis 0 0 0   XYZ
    dof rx ry rz
    limits (-20.0 45.0)
           (-30.0 30.0)
           (-30.0 30.0)
  end
  begin
     id 15 
     name upperneck
     direction 0.0497734 0.995978 -0.074501   
     length 1.5897   
     axis 0 0 0   XYZ
    dof rx ry rz
    limits (-20.0 45.0)
           (-30.0 30.0)
           (-30.0 30.0)
  end
  begin
     id 16
     name head
     direction 0.0189524 0.999519 -0.0245438  
     length 1.74024  
     axis 0 0 0   XYZ
    dof rx ry rz
    limits (-20.0 45.0)
           (-30.0 30.0)
           (-30.0 30.0)
  end
  begin
     id 17 
     name lclavicle
     direction 0.945604 0.324422 0.0241537  
     length 3.59089  
     axis 0 0 0   XYZ
    dof ry rz
    limits (-20.0 10.0)
           (0.0 20.0)
  end
  begin
     id 18 
     name lhumerus
     direction 1 -4.48964e-011 -2.63524e-027   
     length 5.2391   
     axis 180 -30 -90   XYZ
    dof rx ry rz
    limits (-60.0 90.0)
           (-90.0 90.0)
           (-90.0 90.0)
  end
  begin
     id 19
     name lradius
     direction 1 -4.48969e-011 3.86978e-028   
     length 3.31467   
     axis 180 -30 -90   XYZ
    dof rx
    limits (-10.0 170.0)
  end
  begin
     id 20
     name lwrist
     direction 1 -4.48963e-011 7.20928e-028   
     length 1.65734   
     axis -5.52449e-016 90 90   XYZ
    dof ry
    limits (-180.0 0.0)
 end
  begin
     id 21 
     name lhand
     direction 1 -4.48964e-011 1.44186e-027   
     length 0.9659   
     axis -9.20027e-016 90 90   XYZ
    dof rx rz
    limits (-90.0 90.0)
           (-45.0 45.0)
  end
  begin
     id 22 
     name lfingers
     direction 1 -4.48965e-011 2.88371e-027   
     length 0.778733   
     axis -1.84005e-015 90 90   XYZ
    dof rx
    limits (0.0 90.0)
  end
  begin
     id 23
     name lthumb
     direction 0.707107 -6.34931e-011 0.707107   
     length 1.11811   
     axis -90 45 2.85299e-015   XYZ
    dof rx rz
    limits (-45.0 45.0)
           (-45.0 45.0)
  end
  begin
     id 24 
     name rclavicle
     direction -0.923762 0.370785 0.0958234   
     length 3.54196  
     axis 0 0 0   XYZ 
    dof ry rz
    limits (-10.0 20.0)
           (-20.0 0.0)
  end
  begin
     id 25 
     name rhumerus
     direction -1 -4.48966e-011 1.18702e-017  
     length 5.30252   
     axis 180 30 90   XYZ
    dof rx ry rz
    limits (-90.0 60.0)
           (-90.0 90.0)
           (-90.0 90.0)
  end
  begin
     id 26 
     name rradius
     direction -1 -4.48966e-011 4.46736e-027   
     length 3.67875   
     axis 180 30 90   XYZ
    dof rx
    limits (-10.0 170.0)
  end
  begin
     id 27 
     name rwrist
     direction -1 -4.48966e-011 7.20928e-028   
     length 1.83937   
     axis -5.52449e-016 -90 -90   XYZ
    dof ry
    limits (-180.0 0.0)
  end
  begin
     id 28
     name rhand
     direction -1 -4.48973e-011 1.44186e-027   
     length 0.594811   
     axis -9.20027e-016 -90 -90   XYZ
    dof rx rz
    limits (-90.0 90.0)
           (-45.0 45.0)
  end
  begin
     id 29
     name rfingers
     direction -1 -4.48963e-011 2.88371e-027   
     length 0.479552   
     axis -1.84005e-015 -90 -90   XYZ
    dof rx
    limits (0.0 90.0)
  end
  begin
     id 30
     name rthumb
     direction -0.707107 -6.34932e-011 0.707107   
     length 0.688544   
     axis -90 -45 -2.85299e-015   XYZ
    dof rx rz
    limits (-45.0 45.0)
           (-45.0 45.0)
  end
:hierarchy
  begin
    root lhipjoint rhipjoint lowerback
    lhipjoint lfemur
    lfemur ltibia
    ltibia lfoot
    lfoot ltoes
    rhipjoint rfemur
    rfemur rtibia
    rtibia rfoot
    rfoot rtoes
    lowerback upperback
    upperback thorax
    thorax lowerneck lclavicle rclavicle
    lowerneck upperneck
    upperneck head
    lclavicle lhumerus
    lhumerus lradius
    lradius lwrist
    lwrist lhand lthumb
    lhand lfingers
    rclavicle rhumerus
    rhumerus rradius
    rradius rwrist
    rwrist rhand rthumb
    rhand rfingers
  end

#!OML:ASF E:\acrobat2\Project_11_07_03\Capture day 1\Session 1\Acrobat.ASF
:FULLY-SPECIFIED
:DEGREES
341
root 10.6311 19.5324 4.86415 4.9629 -6.75037 -12.6796
lowerback -0.911001 7.36393 14.0943
upperback -0.118861 9.63021 0.881509
thorax 2.52811 4.94357 -6.34893
lowerneck 2.4047 -5.6648 -5.13436
upperneck -7.36299 -6.89211 14.9771
head -1.81897 -3.76131 5.48824
rclavicle 6.16232e-015 0
rhumerus -34.6948 4.50303 -81.6025
rradius 45.8266
rwrist 0.238297
rhand -8.40554 -38.4842
rfingers 7.12502
rthumb 17.5186 -67.7149
lclavicle 6.16232e-015 0
lhumerus -69.1062 21.8756 -0.54713
lradius 31.6482
lwrist 181.791
lhand -11.2824 13.6943
lfingers 7.12502
lthumb 14.7485 43.1496
rfemur 11.9565 -8.90296 30.3174
rtibia 29.3576
rfoot -20.3782 9.56158
rtoes 11.9626
lfemur -64.3304 10.023 -10.5568
ltibia 49.1936
lfoot -12.9823 -18.535
ltoes 10.3907
342
root 10.6416 19.4847 5.16307 4.02032 -6.75813 -13.0272
lowerback -1.22639 7.54315 14.2704
upperback -0.147844 9.81016 1.10361
thorax 2.70156 5.03903 -6.14521
lowerneck 2.58043 -5.95801 -5.69197
upperneck -6.86107 -7.31942 16.1318
head -1.5852 -3.98217 5.92552
rclavicle -3.49364e-014 1.55052e-014
rhumerus -35.8037 3.92594 -81.0655
rradius 46.0511
rwrist 0.575133
rhand -8.99168 -36.9726
rfingers 7.12502
rthumb 16.9544 -66.2526
lclavicle -3.49364e-014 1.55052e-014
lhumerus -70.3164 22.553 -3.36547
lradius 32.9075
lwrist 188.374
lhand -10.0677 13.5042
lfingers 7.12502
lthumb 15.9184 42.87
rfemur 12.8477 -10.4172 29.5533
rtibia 32.622
rfoot -18.7939 8.87423
rtoes 13.0226
lfemur -62.5343 9.41917 -9.73934
ltibia 46.1523
lfoot -13.4201 -18.286
ltoes 8.90232
343
root 10.6458 19.4286 5.4621 3.0051 -6.90637 -13.3422
lowerback -1.57153 7.71735 14.2559
upperback -0.175409 9.97928 1.39212
thorax 2.84591 5.12429 -5.76962
lowerneck 2.79738 -6.19933 -6.06117
upperneck -6.30997 -7.69078 17.167
head -1.35788 -4.17438 6.29617
rclavicle -5.9859e-014 -2.74323e-014
rhumerus -36.927 3.16551 -80.4365
rradius 46.163
rwrist 0.873287
rhand -9.35425 -35.975
rfingers 7.12502
rthumb 16.6054 -65.2846
lclavicle -5.9859e-014 -2.74323e-014
lhumerus -71.5806 23.432 -6.17414
lradius 34.3205
lwrist 194.8
lhand -8.55409 13.325
lfingers 7.12502
lthumb 17.3756 42.5684
rfemur 13.4438 -11.4669 28.8401
rtibia 36.431
rfoot -17.5784 7.2203
rtoes 10.446
lfemur -60.4582 8.74032 -8.68223
ltibia 43.4852
lfoot -13.7245 -17.8418
ltoes 8.04675
344
root 10.651 19.3601 5.7623 1.82908 -7.18769 -13.7608
lowerback -1.83304 7.88068 14.2843
upperback -0.177957 10.1422 1.78739
thorax 2.95435 5.20441 -5.31616
lowerneck 2.97388 -6.4803 -6.26876
upperneck -5.48974 -8.16427 17.9474
head -1.0485 -4.40031 6.55078
rclavicle 1.37752e-013 3.06128e-014
rhumerus -38.1208 2.28462 -79.6801
rradius 46.1457
rwrist 0.928198
rhand -9.50903 -35.5616
rfingers 7.12502
rthumb 16.4564 -64.8837
lclavicle 1.37752e-013 3.06128e-014
lhumerus -72.4721 24.1498 -8.24465
lradius 35.9033
lwrist 201.318
lhand -6.66674 13.4957
lfingers 7.12502
lthumb 19.1913 42.5688
rfemur 13.8585 -12.032 28.3281
rtibia 40.7378
rfoot -16.811 4.85169
rtoes 3.89651
lfemur -57.9993 7.93607 -7.26846
ltibia 41.2714
lfoot -14.3841 -17.1859
ltoes 7.8714
345
root 10.6623 19.2799 6.0589 0.509798 -7.57091 -14.4335
lowerback -1.96462 8.04044 14.6484
upperback -0.084738 10.3012 2.30041
thorax 3.12575 5.29232 -4.92214
lowerneck 3.17263 -6.80612 -6.56594
upperneck -4.74629 -8.70565 18.8034
head -0.744326 -4.66084 6.8451
rclavicle -2.77677e-015 9.93923e-015
rhumerus -39.0783 1.35851 -78.756
rradius 45.841
rwrist 0.721999
rhand -9.8555 -35.8612
rfingers 7.12502
rthumb 16.1228 -65.2106
lclavicle -2.77677e-015 9.93923e-015
lhumerus -72.9364 25.0369 -9.53474
lradius 37.7738
lwrist 207.113
lhand -4.45603 14.3516
lfingers 7.12502
lthumb 21.316 43.1993
rfemur 14.1438 -12.208 28.1543
rtibia 45.4409
rfoot -16.4648 2.75211
rtoes -1.3496
lfemur -55.3529 7.19183 -5.60561
ltibia 39.6605
lfoot -13.8871 -16.2587
ltoes 10.5247
346
root 10.6778 19.1854 6.35832 -0.999643 -8.06561 -15.2148
lowerback -1.98248 8.14568 15.1568
upperback 0.0785046 10.3925 2.92301
thorax 3.29926 5.35068 -4.50533
lowerneck 3.50142 -7.0283 -7.04517
upperneck -4.24355 -9.09003 19.986
head -0.521317 -4.86056 7.28925
rclavicle 6.15114e-014 -1.90833e-014
rhumerus -39.8065 0.453869 -77.6802
rradius 45.1269
rwrist 0.725014
rhand -9.97757 -36.51
rfingers 7.12502
rthumb 16.0052 -65.8688
lclavicle 6.15114e-014 -1.90833e-014
lhumerus -73.3229 26.2666 -10.8692
lradius 39.9299
lwrist 210.996
lhand -2.2416 15.2301
lfingers 7.12502
lthumb 23.4417 43.8222
rfemur 14.3889 -12.2204 28.0253
rtibia 50.65
rfoot -16.9334 1.52183
rtoes -4.87512
lfemur -52.4864 6.61965 -4.03808
ltibia 38.6932
lfoot -14.135 -14.4588
ltoes 6.97406
347
root 10.6939 19.0678 6.66513 -2.49282 -8.593 -15.754
lowerback -2.18811 8.22743 15.3903
upperback 0.211442 10.4262 3.51152
thorax 3.4925 5.37748 -3.96566
lowerneck 3.80581 -7.23347 -7.45743
upperneck -3.66942 -9.47285 21.1881
head -0.270884 -5.05438 7.72975
rclavicle -1.41634e-015 1.19271e-015
rhumerus -40.5951 -0.601019 -76.4957
rradius 44.2458
rwrist 0.783691
rhand -9.65447 -37.3991
rfingers 7.12502
rthumb 16.3164 -66.7327
lclavicle -1.41634e-015 1.19271e-015
lhumerus -73.5 27.681 -12.3575
lradius 42.2964
lwrist 213.271
lhand -0.941819 15.9133
lfingers 7.12502
lthumb 24.688 44.3406
rfemur 14.5214 -12.163 27.5625
rtibia 56.2084
rfoot -17.9604 1.26542
rtoes 1.11899
lfemur -49.6322 6.33672 -3.0856
ltibia 38.3522
lfoot -14.4787 -12.1334
ltoes 2.26724
348
root 10.6953 18.9578 6.95582 -3.69466 -9.12285 -16.3214
lowerback -2.45611 8.32592 15.5605
upperback 0.236993 10.4821 4.03709
thorax 3.60944 5.40626 -3.45687
lowerneck 3.83676 -7.557 -7.64222
upperneck -3.00732 -10.0332 22.1929
head 0.0619602 -5.31315 8.05011
rclavicle 1.02324e-013 5.4467e-014
rhumerus -41.3617 -2.0643 -75.2883
rradius 43.1747
rwrist 1.00349
rhand -10.0179 -38.1213
rfingers 7.12502
rthumb 15.9664 -67.4833
lclavicle 1.02324e-013 5.4467e-014
lhumerus -73.0566 29.081 -13.3456
lradius 44.7834
lwrist 214.962
lhand -0.468595 16.7671
lfingers 7.12502
lthumb 25.1415 45.1316
rfemur 13.4704 -12.2452 27.36
rtibia 62.1262
rfoot -19.6063 -0.749118
rtoes -3.88215
lfemur -47.0342 6.61107 -2.36232
ltibia 38.578
lfoot -14.4207 -10.4882
ltoes -1.38697
349
root 10.687 18.8587 7.22827 -4.82706 -9.69621 -16.9321
lowerback -2.51062 8.40493 15.8546
upperback 0.164887 10.5628 4.46902
thorax 3.54469 5.43669 -3.14628
lowerneck 3.97078 -7.79696 -8.0208
upperneck -2.53232 -10.4777 23.6064
head 0.347572 -5.52902 8.55378
rclavicle 1.63997e-014 -9.54166e-015
rhumerus -42.1073 -3.85203 -74.0834
rradius 41.862
rwrist 1.77685
rhand -10.8342 -38.363
rfingers 7.12502
rthumb 15.1802 -67.7862
lclavicle 1.63997e-014 -9.54166e-015
lhumerus -71.9838 30.3588 -13.8059
lradius 47.2507
lwrist 216.228
lhand -0.400273 17.8472
lfingers 7.12502
lthumb 25.2069 46.2025
rfemur 11.3156 -12.9707 27.2676
rtibia 68.1997
rfoot -18.5648 -7.37346
rtoes -27.3417
lfemur -44.4235 7.27932 -1.65296
ltibia 39.0023
lfoot -14.4687 -9.95849
ltoes -4.15251
350
root 10.6822 18.7177 7.48684 -6.13673 -10.093 -16.8914
lowerback -2.50447 8.36018 15.6636
upperback 0.0637571 10.5204 4.68169
thorax 3.34938 5.39672 -2.85375
lowerneck 4.49354 -7.81347 -8.35853
upperneck -2.38768 -10.5703 25.0813
head 0.419601 -5.6117 9.12564
rclavicle 6.59965e-014 2.3059e-014
rhumerus -42.8134 -5.43577 -72.9627
rradius 40.5143
rwrist 2.41799
rhand -11.1611 -39.2445
rfingers 7.12502
rthumb 14.8653 -68.6912
lclavicle 6.59965e-014 2.3059e-014
lhumerus -70.5701 31.397 -13.791
lradius 49.8592
lwrist 216.907
lhand -0.116384 18.8531
lfingers 7.12502
lthumb 25.4789 47.1699
rfemur 10.6413 -12.6228 26.7306
rtibia 73.8932
rfoot -21.7182 -4.59312
rtoes -6.76722
lfemur -42.0657 7.95898 -1.73996
ltibia 39.4353
lfoot -14.4423 -9.83963
ltoes -6.10272
351
root 10.6745 18.6189 7.74009 -7.64551 -10.2047 -15.8861
lowerback -2.40993 8.16955 14.6495
upperback -0.00337356 10.3362 4.6091
thorax 3.03106 5.27948 -2.47749
lowerneck 5.10539 -7.80669 -8.30602
upperneck -2.45499 -10.563 26.031
head 0.344139 -5.66123 9.47663
rclavicle -1.27719e-013 5.00937e-014
rhumerus -43.5009 -6.78126 -72.0152
rradius 39.4303
rwrist 2.57339
rhand -11.0601 -41.3322
rfingers 7.12502
rthumb 14.9626 -70.7717
lclavicle -1.27719e-013 5.00937e-014
lhumerus -68.8015 32.1142 -13.1425
lradius 52.6233
lwrist 216.976
lhand 0.917934 19.9358
lfingers 7.12502
lthumb 26.4693 48.1072
rfemur 8.78892 -12.9043 24.9543
rtibia 79.4892
rfoot -23.0393 -4.89713
rtoes -6.36093
lfemur -39.7493 8.50436 -2.91458
ltibia 39.6456
lfoot -13.6569 -10.0639
ltoes -4.36551
352
root 10.6725 18.5294 7.97738 -9.25756 -9.95715 -13.9505
lowerback -2.31397 7.91223 12.92
upperback -0.0433791 10.087 4.23403
thorax 2.67265 5.12892 -2.04992
lowerneck 5.80935 -7.86738 -8.27989
upperneck -2.6996 -10.6143 26.8132
head 0.204677 -5.75736 9.7864
rclavicle 5.40694e-014 -4.77083e-014
rhumerus -44.3275 -8.31488 -70.9283
rradius 38.521
rwrist 2.79397
rhand -10.782 -43.2707
rfingers 7.12502
rthumb 15.2305 -72.6901
lclavicle 5.40694e-014 -4.77083e-014
lhumerus -66.405 32.6051 -11.7401
lradius 55.2629
lwrist 216.67
lhand 1.04917 20.9165
lfingers 7.12502
lthumb 26.5949 49.0689
rfemur 6.62012 -13.4719 21.8936
rtibia 84.8048
rfoot -24.2383 -3.44257
rtoes -2.76608
lfemur -37.7518 8.80887 -5.1708
ltibia 39.8827
lfoot -12.4349 -10.364
ltoes -0.359844
353
root 10.6719 18.4402 8.20159 -10.8756 -9.1364 -11.464
lowerback -2.42372 7.50877 10.6158
upperback 0.0319742 9.61551 3.78804
thorax 2.45489 4.87605 -1.36466
lowerneck 6.4056 -7.82129 -8.50801
upperneck -3.06753 -10.5058 27.4655
head 0.0274499 -5.77445 10.1044
rclavicle 6.85807e-015 -3.02153e-014
rhumerus -44.9615 -9.76918 -69.4999
rradius 37.4048
rwrist 3.1145
rhand -10.804 -44.1408
rfingers 7.12502
rthumb 15.2093 -73.5617
lclavicle 6.85807e-015 -3.02153e-014
lhumerus -63.9351 33.5997 -10.0506
lradius 57.7162
lwrist 215.617
lhand -0.825858 21.4173
lfingers 7.12502
lthumb 24.7991 49.8294
rfemur 4.04747 -14.4918 17.9938
rtibia 89.7299
rfoot -25.0885 -2.27751
rtoes -2.11872
lfemur -36.1177 8.85385 -8.19886
ltibia 40.3056
lfoot -11.5918 -10.3985
ltoes 3.97815
354
root 10.6585 18.3261 8.39884 -12.5121 -7.83343 -9.61966
lowerback -2.44918 6.86526 8.59148
upperback 0.312341 8.81044 3.63609
thorax 2.39898 4.46718 -0.520312
lowerneck 6.76327 -7.87467 -9.09374
upperneck -3.73296 -10.51 27.9192
head -0.156426 -5.84507 10.4066
rclavicle -7.42461e-014 -3.02153e-014
rhumerus -45.0965 -10.8065 -68.1224
rradius 36.2891
rwrist 3.02797
rhand -10.8084 -45.3022
rfingers 7.12502
rthumb 15.2051 -74.7235
lclavicle -7.42461e-014 -3.02153e-014
lhumerus -61.6342 35.6911 -8.30516
lradius 59.9118
lwrist 213.538
lhand -2.84613 21.7503
lfingers 7.12502
lthumb 22.8616 50.4152
rfemur 1.30951 -16.0431 14.8783
rtibia 94.1104
rfoot -25.8408 -0.979774
rtoes -2.69436
lfemur -34.8961 8.92248 -10.6568
ltibia 41.2918
lfoot -10.6988 -10.5629
ltoes 7.64032
